<svg width="743" height="743" viewBox="0 0 743 743" fill="none" xmlns="http://www.w3.org/2000/svg">
<g clip-path="url(#clip0_35_6)">
<path d="M371.407 742.995L470.4 644.002L289.719 463.324L245.247 507.796L381.455 644.002L371.407 654.052L88.9442 371.402L98.9923 361.354L235.199 497.748L279.672 453.276L98.9923 272.596L0 371.402L371.407 742.995Z" fill="white"/>
<path d="M480.445 545.021L197.796 262.371L207.843 252.323L490.493 534.973L480.445 545.021ZM480.445 633.964L579.437 534.973L208.03 163.564L109.038 262.557L480.445 633.964Z" fill="white"/>
<path d="M371.402 88.9442L490.491 208.032L480.443 218.08L361.355 98.9923L371.402 88.9442ZM534.964 252.505L654.051 371.593L644.003 381.641L524.914 262.552L534.964 252.505ZM552.081 180.865L371.402 0L272.41 98.9923L599.532 426.114L589.482 436.162L262.548 109.04L218.076 153.512L589.482 524.92L742.996 371.407L562.316 190.728L541.104 211.94L531.056 201.892L552.268 180.68L552.081 180.865Z" fill="white"/>
</g>
<defs>
<clipPath id="clip0_35_6">
<rect width="743" height="743" fill="white"/>
</clipPath>
</defs>
</svg>
